<svg width="327" height="594" viewBox="0 0 327 594" fill="none" xmlns="http://www.w3.org/2000/svg">
<path d="M139 69.4263C143.578 47.9693 132 27.9269 141.5 10.9269C151 -6.07304 196.914 -1.5438 196 12.9269C193 60.4203 169 78.9199 204 91.4199C239 103.92 271 143.926 268.5 167.926L59.5 162.926C65 102.426 129.743 112.813 139 69.4263Z" fill="#FDD848"/>
<path d="M139 69.4263C143.578 47.9693 132 27.9269 141.5 10.9269C151 -6.07304 196.914 -1.5438 196 12.9269C193 60.4203 169 78.9199 204 91.4199C239 103.92 271 143.926 268.5 167.926L59.5 162.926C65 102.426 129.743 112.813 139 69.4263Z" fill="#FDD848"/>
<path d="M44.9999 167.92C59.9998 150.92 184.478 145.24 283 167.92C303.5 172.639 300.5 210.92 283 218.92C259 237.42 136.592 222.264 49.9998 225.92C22 227.102 30.9998 178.92 44.9999 167.92Z" fill="#AAD59E"/>
<path d="M44.9999 167.92C59.9998 150.92 184.478 145.24 283 167.92C303.5 172.639 300.5 210.92 283 218.92C259 237.42 136.592 222.264 49.9998 225.92C22 227.102 30.9998 178.92 44.9999 167.92Z" fill="#AAD59E"/>
<path d="M17.5 257.921C36.2272 182.682 293 184.42 313.5 250.92C334 317.42 328.5 509.92 307 554.921C278.811 613.92 20.9997 606.42 11.9999 528.92C-2.57613 403.402 0.325116 326.922 17.5 257.921Z" fill="#E4ECE4"/>
<path d="M20.5 483.5C20.4999 431 240.5 535.895 306.5 464.396C327.608 441.528 304.224 530.396 297.095 544.869C270.969 597.914 32.0203 591.171 23.6789 521.493C17.8013 472.396 20.5 496.5 20.5 483.5Z" fill="#FAF6F1"/>
<line x1="63" y1="315.92" x2="8" y2="315.92" stroke="#2A2320" stroke-width="10" stroke-linecap="round"/>
<line x1="37" y1="365.92" x2="5" y2="365.92" stroke="#2A2320" stroke-width="10" stroke-linecap="round"/>
<line x1="27.1586" y1="416.074" x2="5.15373" y2="416.761" stroke="#2A2320" stroke-width="10" stroke-linecap="round"/>
<line x1="36.7504" y1="468.658" x2="7.73721" y2="467.17" stroke="#2A2320" stroke-width="10" stroke-linecap="round"/>
<path d="M17.5 257.921C36.2272 182.682 293 184.42 313.5 250.92C334 317.42 328.5 509.92 307 554.921C278.811 613.92 20.9997 606.42 11.9999 528.92C-2.57613 403.402 0.325116 326.922 17.5 257.921Z" fill="#E4ECE4"/>
<path d="M17.5 419.5C17.5 367 244 491 310 419.5C331.108 396.633 304.224 530.396 297.095 544.869C270.969 597.914 32.0203 591.171 23.6789 521.493C17.8013 472.396 17.5 432.5 17.5 419.5Z" fill="#FAF6F1"/>
<line x1="63" y1="315.92" x2="8" y2="315.92" stroke="#2A2320" stroke-width="10" stroke-linecap="round"/>
<line x1="37" y1="365.92" x2="5" y2="365.92" stroke="#2A2320" stroke-width="10" stroke-linecap="round"/>
<line x1="27.1586" y1="416.074" x2="5.15373" y2="416.761" stroke="#2A2320" stroke-width="10" stroke-linecap="round"/>
<line x1="36.7504" y1="468.658" x2="7.73721" y2="467.17" stroke="#2A2320" stroke-width="10" stroke-linecap="round"/>
<line x1="126.917" y1="153.001" x2="126.081" y2="204.003" stroke="#2A2320" stroke-width="10" stroke-linecap="round"/>
<line x1="126.917" y1="153.001" x2="126.081" y2="204.003" stroke="#2A2320" stroke-width="10" stroke-linecap="round"/>
<line x1="174.92" y1="148.999" x2="174.079" y2="202" stroke="#2A2320" stroke-width="10" stroke-linecap="round"/>
<line x1="174.92" y1="148.999" x2="174.079" y2="202" stroke="#2A2320" stroke-width="10" stroke-linecap="round"/>
<line x1="216.92" y1="152.999" x2="216.079" y2="206" stroke="#2A2320" stroke-width="10" stroke-linecap="round"/>
<line x1="216.92" y1="152.999" x2="216.079" y2="206" stroke="#2A2320" stroke-width="10" stroke-linecap="round"/>
<line x1="250" y1="157.92" x2="250" y2="215.92" stroke="#2A2320" stroke-width="10" stroke-linecap="round"/>
<line x1="250" y1="157.92" x2="250" y2="215.92" stroke="#2A2320" stroke-width="10" stroke-linecap="round"/>
<line x1="79" y1="157.92" x2="79" y2="215.92" stroke="#2A2320" stroke-width="10" stroke-linecap="round"/>
</svg>
